<svg width="95" height="23" viewBox="0 0 95 23" fill="none" xmlns="http://www.w3.org/2000/svg">
<path d="M1.2 9.04999C1.25 8.21669 1.45833 7.52499 1.825 6.97499C2.19167 6.42499 2.65833 5.98329 3.225 5.64999C3.79167 5.31669 4.425 5.08329 5.125 4.94999C5.84167 4.79999 6.55833 4.72499 7.275 4.72499C7.925 4.72499 8.58333 4.77499 9.25 4.87499C9.91667 4.95829 10.525 5.13329 11.075 5.39999C11.625 5.66669 12.075 6.04169 12.425 6.52499C12.775 6.99169 12.95 7.61669 12.95 8.39999V15.125C12.95 15.7083 12.9833 16.2667 13.05 16.8C13.1167 17.3333 13.2333 17.7333 13.4 18H9.8C9.73333 17.8 9.675 17.6 9.625 17.4C9.59167 17.1833 9.56667 16.9667 9.55 16.75C8.98333 17.3333 8.31667 17.7417 7.55 17.975C6.78333 18.2083 6 18.325 5.2 18.325C4.58333 18.325 4.00833 18.25 3.475 18.1C2.94167 17.95 2.475 17.7167 2.075 17.4C1.675 17.0833 1.35833 16.6833 1.125 16.2C0.908332 15.7167 0.799999 15.1417 0.799999 14.475C0.799999 13.7417 0.924999 13.1417 1.175 12.675C1.44167 12.1917 1.775 11.8083 2.175 11.525C2.59167 11.2417 3.05833 11.0333 3.575 10.9C4.10833 10.75 4.64167 10.6333 5.175 10.55C5.70833 10.4667 6.23333 10.4 6.75 10.35C7.26667 10.3 7.725 10.225 8.125 10.125C8.525 10.025 8.84167 9.88329 9.075 9.69999C9.30833 9.49999 9.41667 9.21669 9.4 8.84999C9.4 8.46669 9.33333 8.16669 9.2 7.94999C9.08333 7.71669 8.91667 7.54169 8.7 7.42499C8.5 7.29169 8.25833 7.20829 7.975 7.17499C7.70833 7.12499 7.41667 7.09999 7.1 7.09999C6.4 7.09999 5.85 7.24999 5.45 7.54999C5.05 7.84999 4.81667 8.34999 4.75 9.04999H1.2ZM9.4 11.675C9.25 11.8083 9.05833 11.9167 8.825 12C8.60833 12.0667 8.36667 12.125 8.1 12.175C7.85 12.225 7.58333 12.2667 7.3 12.3C7.01667 12.3333 6.73333 12.375 6.45 12.425C6.18333 12.475 5.91667 12.5417 5.65 12.625C5.4 12.7083 5.175 12.825 4.975 12.975C4.79167 13.1083 4.64167 13.2833 4.525 13.5C4.40833 13.7167 4.35 13.9917 4.35 14.325C4.35 14.6417 4.40833 14.9083 4.525 15.125C4.64167 15.3417 4.8 15.5167 5 15.65C5.2 15.7667 5.43333 15.85 5.7 15.9C5.96667 15.95 6.24167 15.975 6.525 15.975C7.225 15.975 7.76667 15.8583 8.15 15.625C8.53333 15.3917 8.81667 15.1167 9 14.8C9.18333 14.4667 9.29167 14.1333 9.325 13.8C9.375 13.4667 9.4 13.2 9.4 13V11.675ZM22.2305 15.675C21.6638 15.675 21.1805 15.5583 20.7805 15.325C20.3805 15.0917 20.0555 14.7917 19.8055 14.425C19.5721 14.0417 19.3971 13.6 19.2805 13.1C19.1805 12.6 19.1305 12.0917 19.1305 11.575C19.1305 11.0417 19.1805 10.525 19.2805 10.025C19.3805 9.52499 19.5471 9.08329 19.7805 8.69999C20.0305 8.31669 20.3471 8.00829 20.7305 7.77499C21.1305 7.52499 21.6221 7.39999 22.2055 7.39999C22.7721 7.39999 23.2471 7.52499 23.6305 7.77499C24.0305 8.00829 24.3555 8.325 24.6055 8.72499C24.8555 9.10829 25.0305 9.54999 25.1305 10.05C25.2471 10.55 25.3055 11.0583 25.3055 11.575C25.3055 12.0917 25.2555 12.6 25.1555 13.1C25.0555 13.6 24.8805 14.0417 24.6305 14.425C24.3971 14.7917 24.0805 15.0917 23.6805 15.325C23.2971 15.5583 22.8138 15.675 22.2305 15.675ZM15.7055 5.07499V22.525H19.2555V16.4H19.3055C19.7388 17.0333 20.2888 17.5167 20.9555 17.85C21.6388 18.1667 22.3805 18.325 23.1805 18.325C24.1305 18.325 24.9555 18.1417 25.6555 17.775C26.3721 17.4083 26.9638 16.9167 27.4305 16.3C27.9138 15.6833 28.2721 14.975 28.5055 14.175C28.7388 13.375 28.8555 12.5417 28.8555 11.675C28.8555 10.7583 28.7388 9.88329 28.5055 9.04999C28.2721 8.19999 27.9138 7.45829 27.4305 6.82499C26.9471 6.19169 26.3388 5.68329 25.6055 5.29999C24.8721 4.91669 23.9971 4.72499 22.9805 4.72499C22.1805 4.72499 21.4471 4.88329 20.7805 5.19999C20.1138 5.51669 19.5638 6.02499 19.1305 6.72499H19.0805V5.07499H15.7055ZM34.6387 3.07499V0.149994H31.0887V3.07499H34.6387ZM31.0887 5.07499V18H34.6387V5.07499H31.0887ZM46.609 11.5C46.609 12.0333 46.559 12.55 46.459 13.05C46.359 13.55 46.1923 14 45.959 14.4C45.7257 14.7833 45.409 15.0917 45.009 15.325C44.6257 15.5583 44.1423 15.675 43.559 15.675C43.009 15.675 42.534 15.5583 42.134 15.325C41.7507 15.075 41.4257 14.7583 41.159 14.375C40.909 13.975 40.7257 13.525 40.609 13.025C40.4923 12.525 40.434 12.025 40.434 11.525C40.434 10.9917 40.484 10.4833 40.584 9.99999C40.7007 9.49999 40.8757 9.05829 41.109 8.67499C41.359 8.29169 41.684 7.98329 42.084 7.74999C42.484 7.51669 42.9757 7.39999 43.559 7.39999C44.1423 7.39999 44.6257 7.51669 45.009 7.74999C45.3923 7.98329 45.7007 8.29169 45.934 8.67499C46.184 9.04169 46.359 9.47499 46.459 9.97499C46.559 10.4583 46.609 10.9667 46.609 11.5ZM46.659 16.35V18H50.034V0.149994H46.484V6.64999H46.434C46.034 6.01669 45.484 5.54169 44.784 5.22499C44.1007 4.89169 43.3757 4.72499 42.609 4.72499C41.659 4.72499 40.8257 4.91669 40.109 5.29999C39.3923 5.66669 38.7923 6.15829 38.309 6.77499C37.8423 7.39169 37.484 8.10829 37.234 8.92499C37.0007 9.72499 36.884 10.5583 36.884 11.425C36.884 12.325 37.0007 13.1917 37.234 14.025C37.484 14.8583 37.8423 15.6 38.309 16.25C38.7923 16.8833 39.4007 17.3917 40.134 17.775C40.8673 18.1417 41.7173 18.325 42.684 18.325C43.534 18.325 44.2923 18.175 44.959 17.875C45.6423 17.5583 46.1923 17.05 46.609 16.35H46.659ZM61.4172 10.15H55.6422C55.6589 9.89999 55.7089 9.61669 55.7922 9.29999C55.8922 8.98329 56.0505 8.68329 56.2672 8.39999C56.5005 8.11669 56.8005 7.88329 57.1672 7.69999C57.5505 7.49999 58.0255 7.39999 58.5922 7.39999C59.4589 7.39999 60.1005 7.63329 60.5172 8.09999C60.9505 8.56669 61.2505 9.24999 61.4172 10.15ZM55.6422 12.4H64.9672C65.0339 11.4 64.9505 10.4417 64.7172 9.52499C64.4839 8.60829 64.1005 7.79169 63.5672 7.07499C63.0505 6.35829 62.3839 5.79169 61.5672 5.37499C60.7505 4.94169 59.7922 4.72499 58.6922 4.72499C57.7089 4.72499 56.8089 4.89999 55.9922 5.24999C55.1922 5.59999 54.5005 6.08329 53.9172 6.69999C53.3339 7.29999 52.8839 8.01669 52.5672 8.84999C52.2505 9.68329 52.0922 10.5833 52.0922 11.55C52.0922 12.55 52.2422 13.4667 52.5422 14.3C52.8589 15.1333 53.3005 15.85 53.8672 16.45C54.4339 17.05 55.1255 17.5167 55.9422 17.85C56.7589 18.1667 57.6755 18.325 58.6922 18.325C60.1589 18.325 61.4089 17.9917 62.4422 17.325C63.4755 16.6583 64.2422 15.55 64.7422 14H61.6172C61.5005 14.4 61.1839 14.7833 60.6672 15.15C60.1505 15.5 59.5339 15.675 58.8172 15.675C57.8172 15.675 57.0505 15.4167 56.5172 14.9C55.9839 14.3833 55.6922 13.55 55.6422 12.4ZM75.8727 9.62499H79.3477C79.2977 8.79169 79.0977 8.07499 78.7477 7.47499C78.3977 6.85829 77.9393 6.34999 77.3727 5.94999C76.8227 5.53329 76.1893 5.22499 75.4727 5.02499C74.7727 4.82499 74.0393 4.72499 73.2727 4.72499C72.2227 4.72499 71.2893 4.89999 70.4727 5.24999C69.656 5.59999 68.9643 6.09169 68.3977 6.72499C67.831 7.34169 67.3977 8.08329 67.0977 8.94999C66.8143 9.79999 66.6727 10.725 66.6727 11.725C66.6727 12.6917 66.831 13.5833 67.1477 14.4C67.4643 15.2 67.906 15.8917 68.4727 16.475C69.0393 17.0583 69.7227 17.5167 70.5227 17.85C71.3393 18.1667 72.231 18.325 73.1977 18.325C74.9143 18.325 76.3227 17.875 77.4227 16.975C78.5227 16.075 79.1893 14.7667 79.4227 13.05H75.9977C75.881 13.85 75.5893 14.4917 75.1227 14.975C74.6727 15.4417 74.0227 15.675 73.1727 15.675C72.6227 15.675 72.156 15.55 71.7727 15.3C71.3893 15.05 71.081 14.7333 70.8477 14.35C70.631 13.95 70.4727 13.5083 70.3727 13.025C70.2727 12.5417 70.2227 12.0667 70.2227 11.6C70.2227 11.1167 70.2727 10.6333 70.3727 10.15C70.4727 9.64999 70.6393 9.19999 70.8727 8.79999C71.1227 8.38329 71.4393 8.04999 71.8227 7.79999C72.206 7.53329 72.681 7.39999 73.2477 7.39999C74.7643 7.39999 75.6393 8.14169 75.8727 9.62499ZM81.7531 0.149994V18H85.3031V13.55L86.6781 12.225L90.2281 18H94.5281L89.1031 9.82499L93.9781 5.07499H89.7781L85.3031 9.72499V0.149994H81.7531Z" fill="#282828"/>
</svg>
